<svg clip-rule="evenodd" fill-rule="evenodd" stroke-linejoin="round" stroke-miterlimit="2" viewBox="0 0 32 32" xmlns="http://www.w3.org/2000/svg"><g transform="translate(-144)"><g transform="matrix(.707 .707 -.732 .732 59.766 -110.04)"><path d="m158.869 1.626c.68-.457 1.582-.457 2.262 0 .033.022.066.047.096.073 1.186 1.026 3.773 3.934 3.773 10.301 0 5.521-.909 12.314-2.22 15.894-.384 1.049-.819 1.846-1.256 2.324-.482.526-1.015.748-1.524.748s-1.042-.222-1.524-.748c-.437-.478-.872-1.275-1.256-2.324-1.311-3.58-2.22-10.373-2.22-15.894 0-6.367 2.588-9.275 3.773-10.301.031-.026.063-.05.096-.073z" fill="#ffa008"/></g><g transform="matrix(.707 .707 -.707 .707 59.716 -109.99)"><path d="m155.498 29.884-2.567.688c-.69.185-1.398-.224-1.583-.913v-.003c-.339-1.265-.162-2.613.493-3.748.508-.88 1.272-1.576 2.179-2.002.408 2.349.914 4.444 1.478 5.978zm-2.347-13.294-6.607 1.321c-.379.076-.772-.022-1.071-.268-.3-.245-.473-.612-.473-.999 0-3.758 2.653-6.994 6.338-7.731l1.958-.392c-.187 1.14-.296 2.415-.296 3.836 0 1.36.053 2.789.151 4.233zm13.553-8.069 1.958.392c3.685.737 6.338 3.973 6.338 7.731 0 .387-.173.754-.473.999-.299.246-.692.344-1.071.268l-6.607-1.321c.098-1.444.151-2.873.151-4.233 0-1.421-.109-2.696-.296-3.836zm-.721 15.367c.924.425 1.702 1.127 2.217 2.02.655 1.135.833 2.483.494 3.748l-.001.003c-.185.689-.893 1.098-1.582.913l-2.605-.698c.563-1.537 1.07-3.635 1.477-5.986z" fill="#ff730a"/></g></g></svg>